<?xml version="1.0" encoding="UTF-8" standalone="no"?>
<svg
   viewBox="0 0 65 65"
   version="1.1"
   id="svg6"
   sodipodi:docname="youtube.svg"
   inkscape:version="1.2.2 (b0a8486541, 2022-12-01)"
   inkscape:export-filename="youtube.png"
   inkscape:export-xdpi="96"
   inkscape:export-ydpi="96"
   xmlns:inkscape="http://www.inkscape.org/namespaces/inkscape"
   xmlns:sodipodi="http://sodipodi.sourceforge.net/DTD/sodipodi-0.dtd"
   xmlns="http://www.w3.org/2000/svg"
   xmlns:svg="http://www.w3.org/2000/svg">
  <defs
     id="defs10" />
  <sodipodi:namedview
     id="namedview8"
     pagecolor="#ffffff"
     bordercolor="#000000"
     borderopacity="0.25"
     inkscape:showpageshadow="2"
     inkscape:pageopacity="0.0"
     inkscape:pagecheckerboard="0"
     inkscape:deskcolor="#d1d1d1"
     showgrid="false"
     inkscape:zoom="10.269366"
     inkscape:cx="6.0860622"
     inkscape:cy="29.79736"
     inkscape:window-width="1920"
     inkscape:window-height="1131"
     inkscape:window-x="0"
     inkscape:window-y="32"
     inkscape:window-maximized="1"
     inkscape:current-layer="svg6" />
  <path
     fill="#FF0000"
     d="M63,14.87c-0.72-2.7-2.85-4.83-5.56-5.56C52.54,8,32.88,8,32.88,8S13.23,8,8.32,9.31             c-2.7,0.72-4.83,2.85-5.56,5.56C1.45,19.77,1.45,30,1.45,30s0,10.23,1.31,15.13c0.72,2.7,2.85,4.83,5.56,5.56             C13.23,52,32.88,52,32.88,52s19.66,0,24.56-1.31c2.7-0.72,4.83-2.85,5.56-5.56C64.31,40.23,64.31,30,64.31,30             S64.31,19.77,63,14.87z"
     id="path2"
     style="fill:#d53d3d;fill-opacity:1" />
  <polygon
     fill="#FFFFFF"
     points="26.6,39.43 42.93,30 26.6,20.57"
     id="polygon4" />
</svg>
